<svg id="Product_Icons" data-name="Product Icons" xmlns="http://www.w3.org/2000/svg" viewBox="0 0 144 144"><defs><style>.cls-1{fill:#ccd1de;}.cls-2{fill:#fdb92d;}.cls-3{fill:#00175a;}.cls-4{fill:none;}</style></defs><title>OA_1_App</title><rect class="cls-1" x="55.03" y="55.03" width="33.94" height="33.94" transform="translate(-29.82 72) rotate(-45)"/><path class="cls-2" d="M96,72,72,96,48,72,24,48,4.24,67.76a6,6,0,0,0,0,8.49L24,96l43.76,43.76a6,6,0,0,0,8.49,0L120,96Z"/><path class="cls-3" d="M120,48,76.24,4.24a6,6,0,0,0-8.49,0L24,48,48,72,72,48,96,72l24,24,19.76-19.76a6,6,0,0,0,0-8.49Z"/><rect class="cls-4" width="144" height="144"/></svg>